#!OML:ASF E:\acrobat2\Project_11_07_03\Capture day 1\Session 1\Acrobat.ASF
:FULLY-SPECIFIED
:DEGREES
841
root 11.8419 13.5193 -11.3016 185.575 -8.01941 -169.723
lowerback 11.8514 6.33605 -3.97285
upperback 4.79472 6.73747 -6.7261
thorax -1.21798 2.94834 -5.67613
lowerneck 0.628624 -5.37962 -1.23007
upperneck -10.0477 -7.93437 -1.66389
head -3.3661 -4.03633 -0.0702255
rclavicle -5.56597e-014 -1.08139e-013
rhumerus 25.1071 36.5101 -75.6385
rradius 39.7788
rwrist -3.07638
rhand -10.4182 321.564
rfingers 7.12502
rthumb 15.5809 -427.829
lclavicle -5.56597e-014 -1.08139e-013
lhumerus 4.83159 -37.4487 64.4803
lradius 28.9967
lwrist 3.28415
lhand 3.97826 -3.11245
lfingers 7.12502
lthumb 29.3949 24.5827
rfemur -11.9708 -13.7174 -17.9497
rtibia 36.6796
rfoot -18.9365 3.13573
rtoes -37.0799
lfemur -15.1959 -7.78156 44.0719
ltibia 13.4024
lfoot -15.8456 -11.1876
ltoes 54.8919
842
root 11.8128 13.5623 -11.3363 185.687 -8.63276 -169.512
lowerback 11.8255 6.44966 -4.28197
upperback 4.75255 6.83494 -6.85004
thorax -1.26277 2.98854 -5.65095
lowerneck 0.773094 -5.51926 -1.45063
upperneck -9.96361 -8.07292 -1.25116
head -3.33422 -4.10499 0.10509
rclavicle -8.26944e-014 -1.33583e-013
rhumerus 23.1164 37.1447 -77.3508
rradius 38.936
rwrist -2.57969
rhand -10.8037 321.483
rfingers 7.12502
rthumb 15.2096 -427.938
lclavicle -8.26944e-014 -1.33583e-013
lhumerus 5.15318 -38.7306 64.3236
lradius 29.1043
lwrist 2.96765
lhand 4.65286 -3.04706
lfingers 7.12502
lthumb 30.0388 24.5332
rfemur -10.9573 -13.0663 -17.6186
rtibia 35.444
rfoot -19.0647 2.6009
rtoes -37.0269
lfemur -15.3717 -8.51029 44.2544
ltibia 12.6863
lfoot -16.3346 -11.2749
ltoes 55.0506
843
root 11.7799 13.6081 -11.3815 185.743 -9.20792 -169.071
lowerback 11.7275 6.50698 -4.48198
upperback 4.68732 6.89391 -6.90366
thorax -1.29178 3.0172 -5.59926
lowerneck 0.601066 -5.68701 -1.54514
upperneck -9.57669 -8.24126 -1.00092
head -3.1515 -4.19185 0.188868
rclavicle 4.77083e-015 -2.22639e-014
rhumerus 21.0032 37.7495 -79.2684
rradius 38.1384
rwrist -2.10072
rhand -11.0279 321.649
rfingers 7.12502
rthumb 14.9936 -427.788
lclavicle 4.77083e-015 -2.22639e-014
lhumerus 5.34265 -39.8376 64.2399
lradius 29.0901
lwrist 2.88341
lhand 5.22836 -2.77594
lfingers 7.12502
lthumb 30.5878 24.7033
rfemur -9.84913 -12.334 -16.9863
rtibia 34.0784
rfoot -19.1952 2.04599
rtoes -36.9054
lfemur -15.4141 -9.14323 44.6747
ltibia 11.9035
lfoot -16.7623 -11.306
ltoes 55.192
844
root 11.742 13.6578 -11.4312 185.679 -9.71255 -168.368
lowerback 11.6207 6.5461 -4.43727
upperback 4.63468 6.97137 -6.89979
thorax -1.27928 3.0629 -5.62039
lowerneck 0.402821 -5.86338 -1.58109
upperneck -9.21971 -8.42713 -0.76993
head -2.97876 -4.28965 0.255616
rclavicle -3.18055e-014 -3.49861e-014
rhumerus 18.8133 38.1723 -81.2584
rradius 37.4655
rwrist -1.2269
rhand -10.9542 321.903
rfingers 7.12502
rthumb 15.0646 -427.529
lclavicle -3.18055e-014 -3.49861e-014
lhumerus 5.69248 -41.1416 63.9731
lradius 28.935
lwrist 3.1225
lhand 5.58026 -2.803
lfingers 7.12502
lthumb 30.9233 24.6131
rfemur -8.76028 -11.4665 -15.9822
rtibia 32.6945
rfoot -19.4311 1.16088
rtoes -37.16
lfemur -15.2506 -9.90078 45.3529
ltibia 10.9844
lfoot -17.4415 -11.1043
ltoes 54.9392
845
root 11.7008 13.7128 -11.472 185.679 -10.2428 -167.81
lowerback 11.5143 6.56174 -4.55835
upperback 4.61679 6.99248 -6.90083
thorax -1.25395 3.07419 -5.54711
lowerneck 0.313216 -5.96906 -1.73935
upperneck -9.1272 -8.52952 -0.383663
head -2.90399 -4.34737 0.398997
rclavicle -4.92986e-014 1.90833e-014
rhumerus 16.7403 38.511 -83.1317
rradius 36.7794
rwrist 0.163285
rhand -10.7469 322.176
rfingers 7.12502
rthumb 15.2643 -427.24
lclavicle -4.92986e-014 1.90833e-014
lhumerus 6.01357 -42.3518 63.6793
lradius 28.866
lwrist 3.30707
lhand 5.62261 -3.22827
lfingers 7.12502
lthumb 30.9636 24.1801
rfemur -7.86015 -10.6945 -15.1246
rtibia 31.4692
rfoot -19.6321 0.129604
rtoes -36.5048
lfemur -15.2171 -10.7743 45.8842
ltibia 10.1274
lfoot -18.3518 -10.8924
ltoes 54.5281
846
root 11.6492 13.7714 -11.5125 185.746 -10.7841 -167.457
lowerback 11.448 6.58514 -4.79668
upperback 4.56973 6.99564 -6.9621
thorax -1.28856 3.07233 -5.47826
lowerneck 0.238322 -6.07459 -1.90523
upperneck -9.02743 -8.62802 0.0383144
head -2.82739 -4.40316 0.554287
rclavicle 9.06458e-014 -3.18055e-015
rhumerus 14.5962 38.7488 -84.9932
rradius 36.0966
rwrist 1.43776
rhand -10.6572 322.492
rfingers 7.12502
rthumb 15.3507 -426.919
lclavicle 9.06458e-014 -3.18055e-015
lhumerus 6.17912 -43.4691 63.5294
lradius 28.9568
lwrist 3.48749
lhand 5.97097 -3.26504
lfingers 7.12502
lthumb 31.2957 24.0797
rfemur -6.969 -10.1496 -14.566
rtibia 30.2784
rfoot -19.4034 -0.895779
rtoes -35.6864
lfemur -15.2625 -11.6695 46.1591
ltibia 9.33254
lfoot -19.2721 -10.8106
ltoes 54.2338
847
root 11.5938 13.831 -11.5477 185.842 -11.276 -167.054
lowerback 11.3979 6.64373 -4.98676
upperback 4.49799 7.05606 -6.98762
thorax -1.35329 3.10279 -5.40848
lowerneck 0.263971 -6.1937 -1.93663
upperneck -9.05616 -8.76248 0.341504
head -2.82416 -4.47769 0.659003
rclavicle 9.54166e-015 1.62208e-013
rhumerus 12.3613 38.57 -86.8442
rradius 35.5211
rwrist 2.68342
rhand -9.7214 323.14
rfingers 7.12502
rthumb 16.2519 -426.199
lclavicle 9.54166e-015 1.62208e-013
lhumerus 6.50465 -44.7791 63.401
lradius 28.8893
lwrist 3.80903
lhand 6.2957 -3.27178
lfingers 7.12502
lthumb 31.605 24.0126
rfemur -6.22494 -9.53757 -13.9489
rtibia 29.1071
rfoot -18.8533 -2.09124
rtoes -35.5139
lfemur -15.3689 -12.3991 46.4953
ltibia 8.66371
lfoot -20.1127 -10.591
ltoes 53.7219
848
root 11.5379 13.8919 -11.5742 186.01 -11.6964 -166.585
lowerback 11.2871 6.70984 -5.12753
upperback 4.44339 7.14222 -7.00084
thorax -1.36147 3.14767 -5.34767
lowerneck 0.18502 -6.29015 -1.89026
upperneck -9.16659 -8.88302 0.542672
head -2.83799 -4.54862 0.717072
rclavicle 9.54166e-015 9.22361e-014
rhumerus 10.2776 37.9075 -88.6905
rradius 34.9108
rwrist 4.34979
rhand -10.3273 323.188
rfingers 7.12502
rthumb 15.6684 -426.198
lclavicle 9.54166e-015 9.22361e-014
lhumerus 6.94572 -46.0115 63.2103
lradius 28.7214
lwrist 3.98377
lhand 6.42346 -3.83071
lfingers 7.12502
lthumb 31.7267 23.4297
rfemur -5.72582 -8.77776 -13.2465
rtibia 28.0217
rfoot -18.3507 -3.15809
rtoes -33.8103
lfemur -15.5706 -12.8572 46.927
ltibia 8.15453
lfoot -20.8233 -10.2722
ltoes 53.1113
849
root 11.4647 13.9554 -11.6122 186.158 -11.8791 -166.064
lowerback 10.9966 6.79956 -5.10409
upperback 4.42462 7.2958 -7.06147
thorax -1.20385 3.22782 -5.41066
lowerneck -0.195921 -6.39178 -2.0105
upperneck -9.08068 -8.9934 0.877161
head -2.71593 -4.61605 0.823698
rclavicle 1.27222e-014 1.33583e-013
rhumerus 8.45425 37.5746 -90.2467
rradius 34.3198
rwrist 5.58947
rhand -10.5947 323.433
rfingers 7.12502
rthumb 15.4109 -425.972
lclavicle 1.27222e-014 1.33583e-013
lhumerus 7.29617 -46.9873 63.0297
lradius 28.5978
lwrist 3.95509
lhand 7.00731 -4.20933
lfingers 7.12502
lthumb 32.2827 22.9395
rfemur -5.23426 -7.94336 -12.555
rtibia 26.8432
rfoot -17.677 -3.95434
rtoes -31.0142
lfemur -15.4233 -13.3762 47.2991
ltibia 7.50122
lfoot -21.6437 -9.97801
ltoes 52.5548
850
root 11.3994 14.0198 -11.6362 186.548 -12.5486 -165.49
lowerback 10.782 6.64862 -5.02765
upperback 4.21676 7.14778 -7.09529
thorax -1.29985 3.17247 -5.45799
lowerneck -0.241861 -6.41737 -2.2687
upperneck -9.16827 -8.99302 1.41071
head -2.69934 -4.6255 1.03293
rclavicle -5.24792e-014 -1.74931e-013
rhumerus 6.40716 37.2846 -91.8947
rradius 33.8373
rwrist 6.8095
rhand -10.474 323.598
rfingers 7.12502
rthumb 15.5272 -425.798
lclavicle -5.24792e-014 -1.74931e-013
lhumerus 7.34239 -48.0123 62.9609
lradius 28.5141
lwrist 3.88199
lhand 7.95426 -4.09244
lfingers 7.12502
lthumb 33.1835 22.8689
rfemur -4.72485 -7.33836 -11.7595
rtibia 25.5576
rfoot -16.9292 -5.11786
rtoes -28.7833
lfemur -16.0622 -13.3234 47.9306
ltibia 7.17039
lfoot -21.8193 -9.86031
ltoes 52.5326
851
root 11.3314 14.0938 -11.6686 186.708 -12.9797 -164.873
lowerback 10.7161 6.58814 -5.05833
upperback 4.04168 7.08316 -7.09265
thorax -1.45567 3.15132 -5.43434
lowerneck -0.0714361 -6.37209 -2.37129
upperneck -9.48407 -8.91239 1.8676
head -2.81233 -4.59831 1.21057
rclavicle -8.11041e-014 -1.27222e-013
rhumerus 4.16188 36.2452 -93.8824
rradius 33.3519
rwrist 8.62105
rhand -9.97326 323.917
rfingers 7.12502
rthumb 16.0094 -425.442
lclavicle -8.11041e-014 -1.27222e-013
lhumerus 7.27599 -49.0955 62.8786
lradius 28.4948
lwrist 3.89409
lhand 9.0092 -3.81925
lfingers 7.12502
lthumb 34.186 22.923
rfemur -4.16197 -6.16576 -10.8604
rtibia 24.2002
rfoot -16.2805 -6.40438
rtoes -26.0105
lfemur -16.2836 -13.5342 48.4695
ltibia 6.7695
lfoot -22.1114 -9.82946
ltoes 52.5848
852
root 11.2332 14.1763 -11.7204 186.437 -12.7037 -164.387
lowerback 10.6916 6.81955 -5.17186
upperback 4.07801 7.3647 -7.11655
thorax -1.39945 3.28348 -5.42697
lowerneck -0.244047 -6.41362 -2.3483
upperneck -9.58997 -8.95107 2.17658
head -2.80215 -4.63334 1.30071
rclavicle -3.81667e-014 2.09917e-013
rhumerus 2.0683 34.9643 -95.6685
rradius 32.9454
rwrist 9.95117
rhand -10.2398 323.834
rfingers 7.12502
rthumb 15.7527 -425.544
lclavicle -3.81667e-014 2.09917e-013
lhumerus 7.27185 -50.0545 62.8762
lradius 28.4339
lwrist 3.64049
lhand 9.66093 -4.17526
lfingers 7.12502
lthumb 34.8047 22.4262
rfemur -3.47162 -4.53666 -10.2453
rtibia 22.8276
rfoot -15.1163 -7.46854
rtoes -23.2415
lfemur -15.3531 -14.596 48.4514
ltibia 6.02634
lfoot -23.0329 -9.89515
ltoes 52.5203
